<svg width="56" height="32" viewBox="0 0 56 32" fill="none" xmlns="http://www.w3.org/2000/svg">
<path d="M28 23.8656C26.5405 25.024 24.7881 25.744 22.9431 25.9433C21.098 26.1427 19.2347 25.8134 17.5659 24.9931C15.8972 24.1728 14.4904 22.8944 13.5062 21.3042C12.5219 19.7139 12 17.8759 12 16C12 14.1241 12.5219 12.2861 13.5062 10.6958C14.4904 9.10556 15.8972 7.82725 17.5659 7.0069C19.2347 6.18656 21.098 5.85727 22.9431 6.05665C24.7881 6.25603 26.5405 6.97604 28 8.13443C29.4595 6.97604 31.2119 6.25603 33.0569 6.05665C34.902 5.85727 36.7653 6.18656 38.4341 7.0069C40.1028 7.82725 41.5096 9.10556 42.4938 10.6958C43.4781 12.2861 44 14.1241 44 16C44 17.8759 43.4781 19.7139 42.4938 21.3042C41.5096 22.8944 40.1028 24.1728 38.4341 24.9931C36.7653 25.8134 34.902 26.1427 33.0569 25.9433C31.2119 25.744 29.4595 25.024 28 23.8656ZM34.102 23.5313C35.2781 23.533 36.4379 23.2532 37.4864 22.7147C38.535 22.1762 39.4425 21.3944 40.1348 20.4332C40.827 19.472 41.2843 18.3588 41.4692 17.1846C41.6542 16.0104 41.5614 14.8087 41.1987 13.6777C40.8359 12.5467 40.2134 11.5186 39.3821 10.6775C38.5508 9.83646 37.5343 9.20634 36.4159 8.83872C35.2974 8.47111 34.1087 8.37644 32.9471 8.56247C31.7855 8.7485 30.684 9.20994 29.7326 9.90903C31.0616 11.6571 31.7821 13.8 31.7821 16.0047C31.7821 18.2094 31.0616 20.3523 29.7326 22.1004C31.0019 23.0347 32.5319 23.5372 34.102 23.5355V23.5313Z" fill="white"/>
</svg>
