<svg width="56" height="32" viewBox="0 0 56 32" fill="none" xmlns="http://www.w3.org/2000/svg">
<path fill-rule="evenodd" clip-rule="evenodd" d="M14.1324 15.9812C14.1324 9.90625 19.0149 4.99375 25.0111 4.99375C31.026 4.99375 35.8898 9.90625 35.8898 15.9812C35.8898 22.0375 31.026 26.9688 25.0111 26.9688C19.0149 26.9688 14.1324 22.0375 14.1324 15.9812ZM18.1238 15.9812C18.1238 18.9438 19.9616 21.475 22.5421 22.4688V9.475C19.9616 10.4875 18.1238 13.0187 18.1238 15.9812ZM31.8985 15.9812C31.8985 13.0187 30.0606 10.4875 27.4802 9.475V22.4875C30.0606 21.475 31.8985 18.9438 31.8985 15.9812ZM24.9926 28H30.5804C37.078 28 43 22.6562 43 16.1125C43 8.95 37.078 4 30.5804 4H24.9926C18.4208 4 13 8.95 13 16.1125C13 22.6562 18.4208 28 24.9926 28Z" fill="white"/>
</svg>
